<?xml version="1.0" standalone="no"?>
<!DOCTYPE svg PUBLIC "-//W3C//DTD SVG 20010904//EN"
 "http://www.w3.org/TR/2001/REC-SVG-20010904/DTD/svg10.dtd">
<svg version="1.0" xmlns="http://www.w3.org/2000/svg"
 width="1200.000000pt" height="1200.000000pt" viewBox="0 0 1200.000000 1200.000000"
 preserveAspectRatio="xMidYMid meet">
<metadata>
Created by potrace 1.14, written by Peter Selinger 2001-2017
</metadata>
<g transform="translate(0.000000,1200.000000) scale(0.100000,-0.100000)"
fill="#000000" stroke="none">
<path d="M0 6000 l0 -6000 6000 0 6000 0 0 6000 0 6000 -6000 0 -6000 0 0
-6000z m6055 3080 c4 -6 14 -8 23 -6 19 6 82 -28 82 -44 0 -5 9 -10 21 -10 13
0 18 -4 13 -12 -5 -8 -1 -8 10 1 24 20 112 23 127 5 7 -8 20 -12 35 -8 17 4
33 -2 55 -21 25 -20 34 -23 40 -13 7 10 9 10 9 1 0 -7 12 -16 28 -19 15 -4 46
-18 70 -31 23 -13 48 -21 54 -17 6 4 8 3 5 -3 -8 -12 20 -26 34 -17 5 3 9 1 9
-5 0 -5 10 -11 23 -13 12 -2 21 -9 19 -16 -1 -8 2 -11 7 -8 5 4 22 -4 38 -17
15 -13 46 -32 68 -43 22 -10 66 -35 97 -56 31 -21 62 -38 68 -38 5 0 10 -5 10
-10 0 -6 8 -13 18 -17 9 -3 40 -23 69 -44 29 -22 60 -39 70 -39 24 0 32 -7 77
-62 20 -26 47 -48 59 -50 12 -2 21 -9 20 -16 -2 -6 3 -12 11 -12 8 0 23 -15
35 -33 11 -18 34 -42 50 -55 17 -12 31 -28 31 -35 0 -12 52 -57 65 -57 11 0
44 -44 45 -57 0 -7 7 -13 16 -13 8 0 13 -4 10 -8 -3 -5 9 -23 27 -40 43 -42
67 -71 66 -79 0 -4 6 -10 14 -13 15 -5 69 -69 111 -132 14 -20 34 -42 44 -50
11 -7 22 -22 26 -34 3 -11 20 -30 36 -42 17 -13 30 -29 30 -37 0 -7 11 -27 25
-43 14 -17 25 -35 25 -40 0 -6 8 -17 19 -24 10 -7 21 -22 24 -33 4 -11 18 -32
32 -47 14 -15 25 -30 25 -33 0 -4 18 -37 40 -75 22 -38 40 -75 40 -83 0 -8 6
-20 14 -27 21 -16 83 -142 112 -224 13 -38 31 -77 39 -86 8 -9 15 -21 15 -27
0 -16 43 -118 52 -121 4 -2 8 -16 8 -30 0 -15 7 -40 16 -57 9 -16 25 -64 35
-105 10 -41 23 -93 30 -115 6 -22 11 -56 11 -75 -1 -19 4 -37 9 -41 10 -6 20
-97 23 -204 0 -33 4 -63 9 -66 11 -8 11 -236 -1 -304 -6 -33 -16 -112 -22
-175 -9 -85 -18 -127 -36 -162 -13 -26 -24 -59 -24 -72 0 -14 -4 -28 -10 -31
-5 -3 -10 -15 -10 -26 0 -10 -4 -27 -9 -37 -21 -37 -101 -210 -101 -217 0 -3
-19 -33 -42 -67 -24 -33 -50 -73 -58 -88 -17 -31 -50 -74 -101 -133 -34 -38
-35 -43 -21 -57 9 -8 20 -14 24 -13 5 2 8 -4 8 -12 0 -7 6 -18 13 -22 7 -4 23
-23 36 -40 12 -18 29 -33 36 -33 8 0 16 -8 20 -17 3 -10 30 -36 59 -58 30 -22
52 -43 50 -47 -3 -4 9 -15 26 -24 16 -10 30 -24 30 -30 0 -14 59 -60 61 -47 1
4 4 -3 8 -17 4 -14 13 -24 20 -22 7 1 10 -2 7 -7 -3 -5 6 -16 20 -25 13 -10
29 -28 34 -42 6 -15 16 -24 26 -22 9 2 19 -3 21 -9 3 -7 0 -13 -6 -13 -19 0
10 -48 33 -54 16 -5 18 -8 8 -15 -11 -6 -8 -13 12 -29 14 -11 26 -28 26 -38
-1 -18 -1 -18 -15 0 -8 11 -15 15 -15 10 0 -6 5 -15 12 -22 7 -7 14 -46 15
-90 2 -42 5 -101 7 -131 2 -44 0 -55 -15 -58 -18 -5 -39 -45 -42 -81 0 -11 -4
-19 -7 -17 -13 8 -30 -13 -32 -40 -2 -15 -15 -40 -29 -55 -24 -23 -69 -99 -69
-115 0 -4 10 -4 23 0 21 6 21 6 3 -9 -11 -9 -26 -16 -33 -16 -38 0 -56 -141
-34 -271 6 -31 7 -152 3 -289 l-7 -235 -25 0 -25 0 -8 195 c-4 107 -8 206 -7
220 5 148 -1 289 -16 334 -19 57 -43 91 -56 78 -11 -11 -56 -3 -64 10 -4 6 1
8 13 4 13 -4 25 0 33 9 11 13 10 14 -2 10 -9 -4 -18 1 -21 9 -4 9 -11 16 -17
16 -6 0 -9 -4 -5 -9 3 -5 1 -12 -4 -16 -10 -6 -9 -35 8 -190 13 -115 9 -133
-26 -141 -48 -12 -58 5 -55 89 4 77 -12 182 -30 205 -6 7 -19 10 -29 7 -10 -4
-27 -1 -38 4 -14 8 -21 8 -25 -2 -3 -6 -4 -3 -1 8 7 30 -64 108 -90 99 -15 -6
-17 -4 -12 10 8 22 -22 77 -37 69 -6 -3 -8 -3 -4 2 10 10 -30 87 -53 103 -24
16 -25 34 -2 25 12 -5 14 -3 7 8 -4 8 -7 21 -6 30 2 9 -4 19 -13 22 -8 4 -15
14 -15 23 0 19 -37 54 -57 54 -8 0 -11 5 -8 10 7 11 -58 80 -75 80 -6 0 -9 3
-8 8 3 9 -43 62 -54 62 -5 0 -7 -4 -4 -8 7 -12 -10 -35 -22 -28 -6 3 -7 17 -3
33 6 21 2 32 -14 48 -12 11 -30 32 -39 47 -11 16 -23 25 -30 21 -6 -4 -20 -6
-31 -5 -11 1 -35 -11 -54 -28 -18 -16 -41 -31 -50 -31 -33 -3 -38 -4 -55 -22
-10 -9 -27 -17 -39 -17 -12 0 -35 -11 -51 -25 -16 -13 -32 -22 -37 -19 -5 2
-22 -2 -39 -11 -17 -9 -35 -13 -41 -10 -5 4 -8 1 -7 -5 2 -7 -13 -13 -36 -15
-21 -3 -43 -8 -50 -13 -6 -5 -29 -13 -51 -16 -22 -4 -60 -17 -84 -28 -33 -16
-72 -23 -150 -27 -75 -4 -106 -10 -109 -20 -3 -9 -6 -10 -11 -2 -5 8 -16 5
-36 -11 -16 -12 -26 -17 -21 -10 11 18 -8 15 -35 -6 -13 -10 -31 -21 -40 -24
-24 -9 -37 -173 -15 -197 22 -24 30 -74 17 -99 -12 -23 -67 -34 -82 -16 -6 7
-9 48 -8 96 2 46 -2 103 -7 128 -11 48 -40 90 -61 90 -6 0 -13 10 -15 22 -2
11 -10 22 -18 24 -8 2 -37 7 -65 13 -27 5 -90 16 -140 25 -49 9 -106 20 -125
25 -19 5 -69 18 -110 29 -72 19 -89 24 -127 39 -19 6 -30 9 -51 11 -7 1 -11 6
-8 11 3 5 -7 11 -22 14 -15 3 -29 1 -31 -5 -2 -5 -13 -1 -25 10 -11 11 -32 22
-46 24 -14 2 -24 9 -23 16 2 6 -1 12 -6 12 -5 0 -35 12 -67 27 -33 14 -68 25
-78 24 -14 -2 -17 2 -12 14 5 14 2 16 -15 12 -12 -3 -32 -1 -43 5 -21 12 -21
12 4 18 22 6 16 11 -52 44 -43 20 -78 40 -78 45 0 5 -13 14 -30 20 -16 5 -30
8 -30 5 0 -3 -9 0 -20 6 -11 6 -20 15 -20 20 0 20 -41 50 -68 50 -15 0 -34 6
-40 12 -10 10 -15 10 -22 -2 -12 -19 -12 -214 0 -460 9 -169 8 -196 -5 -210
-12 -11 -20 -12 -32 -4 -19 12 -20 26 -23 484 l-1 205 -47 79 c-35 58 -48 73
-50 57 -2 -11 -14 -29 -28 -40 -13 -10 -24 -24 -24 -30 0 -6 -7 -11 -16 -11
-8 0 -12 -4 -9 -10 3 -6 -3 -10 -15 -10 -12 0 -19 -4 -16 -9 4 -5 -4 -7 -16
-3 -16 4 -19 2 -13 -8 5 -9 4 -11 -4 -6 -6 4 -18 0 -27 -9 -9 -9 -23 -14 -30
-11 -8 3 -14 -1 -14 -11 0 -9 -3 -14 -6 -10 -3 3 -17 -5 -31 -19 -22 -22 -36
-28 -56 -25 -5 1 -6 -3 -3 -8 4 -5 -9 -17 -28 -26 -19 -9 -37 -23 -40 -31 -3
-9 -10 -13 -15 -9 -12 7 -62 -35 -55 -46 3 -5 -7 -11 -21 -15 -14 -3 -25 -10
-25 -16 0 -5 6 -6 13 -2 6 4 -1 -5 -16 -19 -15 -15 -32 -27 -38 -27 -5 0 -13
-8 -16 -17 -4 -10 -25 -36 -47 -58 -60 -59 -145 -155 -138 -155 4 0 -4 -10
-16 -22 -13 -13 -41 -48 -62 -78 -22 -30 -44 -60 -50 -67 -5 -7 -10 -15 -10
-18 0 -3 -15 -19 -33 -35 -18 -16 -42 -45 -52 -64 -11 -20 -23 -36 -28 -36 -4
0 -5 -5 -1 -12 4 -6 3 -8 -3 -5 -6 4 -17 0 -24 -9 -7 -8 -26 -22 -42 -31 l-30
-15 7 -264 7 -263 -26 -7 c-15 -4 -31 -2 -35 2 -5 5 -12 122 -15 259 -4 138
-10 254 -15 259 -5 5 -17 5 -27 1 -10 -5 -27 -9 -38 -10 -11 -1 -38 -5 -60 -8
-25 -5 -60 -2 -92 7 -28 8 -54 12 -56 10 -8 -8 -97 35 -97 46 0 6 -4 9 -10 5
-5 -3 -16 8 -25 25 -8 16 -20 30 -25 30 -5 0 -7 7 -4 15 4 8 1 15 -5 15 -6 0
-11 -4 -11 -10 0 -5 -4 -10 -10 -10 -5 0 -10 9 -10 20 0 11 -4 20 -9 20 -9 0
-36 87 -32 107 1 6 -3 14 -9 18 -11 7 -14 46 -2 44 18 -3 20 3 7 28 -13 24
-12 30 0 50 17 25 19 37 7 29 -4 -2 4 19 18 47 29 60 89 147 102 147 4 0 8 5
8 10 0 12 15 27 97 98 34 28 66 52 72 52 6 0 11 5 11 11 0 6 7 9 15 5 8 -3 15
-1 15 4 0 6 7 10 15 10 7 0 18 6 22 14 4 8 13 16 18 17 22 4 55 32 55 46 0 8
4 12 9 9 14 -9 71 27 72 44 0 11 2 12 6 2 4 -10 9 -7 17 10 7 13 19 22 29 20
11 -2 15 2 11 13 -5 11 2 17 26 21 21 5 27 9 19 15 -10 6 -6 11 14 18 15 6 27
15 27 21 0 5 9 10 20 10 13 0 22 9 26 25 3 14 13 25 21 25 9 0 13 6 10 15 -4
8 -2 17 4 20 5 4 9 3 8 -2 -3 -20 2 -23 16 -9 8 8 15 23 15 33 0 14 2 15 9 4
12 -19 34 -3 28 20 -3 11 -1 19 4 19 19 0 57 43 52 58 -4 10 -2 13 5 8 9 -5
25 22 27 47 0 4 6 11 13 16 8 5 12 12 11 16 -5 13 44 74 59 75 7 0 12 6 11 13
-3 22 1 37 9 36 20 -3 23 3 11 18 -10 11 -10 14 -1 9 7 -4 12 -2 12 6 0 8 9
20 20 28 11 8 20 20 20 26 0 31 97 108 124 98 11 -4 15 -2 11 7 -2 8 7 23 22
33 14 11 24 15 20 10 -3 -6 11 -10 36 -8 23 0 42 2 42 3 0 1 20 4 44 7 32 3
49 0 62 -12 17 -15 18 -15 25 10 5 22 8 24 18 12 8 -11 23 -12 66 -6 37 5 57
4 62 -4 4 -7 9 -4 14 7 3 9 11 14 16 10 11 -6 58 -14 95 -16 12 -1 19 -5 16
-11 -4 -5 1 -7 10 -3 9 3 19 3 21 -2 3 -4 31 -13 63 -20 32 -7 65 -19 74 -27
8 -8 27 -15 42 -16 14 -1 23 -6 21 -10 -3 -5 3 -11 13 -15 10 -4 24 -13 31
-20 7 -7 22 -13 33 -13 10 0 19 -4 19 -10 0 -5 6 -10 14 -10 7 0 19 -7 27 -16
7 -8 36 -27 63 -41 28 -14 53 -28 56 -32 11 -14 68 -40 74 -34 3 3 6 1 6 -6 0
-6 10 -16 23 -21 12 -6 30 -14 40 -20 9 -5 25 -15 35 -20 9 -6 28 -15 42 -22
14 -6 58 -26 97 -44 40 -19 80 -31 88 -28 10 4 15 0 15 -10 0 -14 11 -20 32
-17 6 1 51 -17 113 -44 17 -7 46 -16 65 -18 19 -3 44 -7 55 -11 112 -32 173
-40 325 -40 166 0 232 5 294 22 28 8 67 17 87 21 19 4 42 12 50 16 7 5 20 10
29 10 36 3 91 28 86 38 -4 7 -9 20 -12 30 -5 12 -13 17 -26 14 -15 -4 -18 -2
-14 10 4 10 -16 37 -59 79 -36 35 -69 64 -74 64 -12 0 -56 40 -56 51 0 5 -4 9
-8 8 -5 0 -15 7 -21 17 -8 10 -20 15 -30 11 -19 -7 -21 4 -4 21 9 9 9 12 0 12
-7 0 -12 6 -12 13 0 11 -41 43 -49 38 -2 -2 -11 8 -20 22 -29 43 -66 83 -84
90 -10 4 -16 11 -12 16 3 5 -4 12 -15 16 -11 3 -20 10 -20 15 0 14 -48 58 -67
62 -10 2 -17 11 -15 20 1 9 -10 26 -25 37 -55 42 -74 61 -69 69 6 10 -30 43
-38 35 -3 -4 -6 -1 -6 6 0 15 -90 101 -106 101 -8 0 -64 63 -64 72 0 4 -9 10
-20 13 -11 3 -20 13 -20 21 0 8 -3 13 -7 11 -5 -3 -19 10 -33 29 -14 18 -28
34 -32 34 -4 0 -26 20 -49 45 -23 25 -45 42 -50 39 -5 -3 -9 1 -9 8 0 13 -47
58 -61 58 -4 0 -10 8 -13 18 -3 9 -19 26 -35 37 -17 11 -36 30 -42 42 -7 13
-21 23 -31 23 -10 0 -18 3 -18 8 0 14 -57 71 -64 64 -4 -4 -6 -2 -4 3 4 12
-70 89 -95 98 -10 4 -16 11 -13 16 8 12 -24 43 -38 38 -6 -3 -19 -8 -28 -12
-10 -4 -18 -3 -18 3 0 5 9 12 20 15 38 10 16 35 -24 28 -5 -1 -4 4 2 11 8 10
0 23 -34 57 -25 24 -41 48 -37 54 3 7 2 8 -2 4 -5 -4 -23 15 -41 43 -19 30
-34 46 -37 38 -3 -7 -6 -1 -6 15 -1 15 -5 27 -11 27 -5 0 -10 5 -10 11 0 5 6
7 13 3 6 -3 -1 7 -18 23 -16 16 -35 27 -41 25 -16 -5 -27 15 -14 23 5 3 10 12
10 18 0 7 -4 6 -10 -3 -9 -13 -12 -13 -21 3 -6 9 -14 15 -20 12 -5 -4 -14 5
-21 19 -6 14 -17 26 -23 26 -7 0 -15 13 -18 29 -5 22 -12 29 -27 28 -11 -1
-20 -5 -20 -10 0 -4 -4 -5 -10 -2 -5 3 -10 1 -10 -5 0 -6 8 -9 18 -6 19 6 50
-9 39 -20 -3 -4 -13 -1 -22 6 -13 11 -14 10 -9 -4 3 -9 14 -16 23 -17 11 0 12
-2 3 -6 -19 -7 -63 37 -61 62 2 36 -1 44 -15 39 -8 -3 -17 -1 -21 5 -3 6 -1
11 5 11 6 0 9 4 5 10 -3 5 -12 7 -20 3 -8 -3 -15 0 -15 6 0 17 -77 -50 -225
-194 -112 -110 -125 -128 -125 -177 0 -25 -11 -45 -46 -83 l-46 -50 5 -70 c4
-38 11 -110 17 -158 12 -103 5 -127 -39 -127 -44 0 -52 18 -46 101 3 44 0 99
-7 134 l-13 60 -42 3 c-30 2 -44 8 -48 21 -3 10 -32 46 -65 80 -33 33 -60 65
-60 71 0 5 -19 29 -43 54 -24 24 -70 79 -102 121 -33 42 -72 87 -87 100 -15
13 -28 27 -28 31 0 3 -38 45 -85 92 -47 47 -85 89 -85 93 0 4 -25 25 -55 48
-34 26 -55 49 -55 61 0 11 -3 20 -7 20 -15 0 -9 104 6 123 39 46 69 72 86 75
10 2 33 18 50 35 18 18 53 51 78 73 26 23 43 44 40 48 -3 3 -1 6 5 6 6 0 39
28 75 63 35 34 86 80 112 102 68 56 115 103 115 113 0 17 328 342 345 342 5 0
28 19 107 89 21 18 38 38 38 44 0 40 74 142 103 142 4 0 11 5 15 11 9 14 133
14 125 0 -3 -5 -1 -6 5 -2 12 7 57 -11 84 -33 9 -8 36 -21 60 -29 24 -8 54
-22 68 -32 14 -9 40 -17 58 -16 17 0 32 -2 32 -5 0 -3 21 -5 48 -4 26 0 53 -3
60 -8 6 -5 12 -6 12 -2 0 4 6 3 13 -2 6 -5 31 -9 54 -9 23 1 39 -3 36 -7 -3
-5 5 -6 17 -2 14 5 20 3 16 -3 -4 -7 22 -9 75 -7 45 2 90 0 101 -6 13 -7 18
-6 18 3 0 10 2 10 9 -1 5 -8 29 -15 57 -16 27 -2 72 -6 99 -10 28 -4 58 -8 67
-9 9 0 15 -4 12 -8 -2 -3 15 -10 40 -13 118 -18 172 -152 106 -270 -32 -58
-61 -83 -85 -74 -30 12 -34 11 -56 -15 -12 -14 -27 -22 -33 -20 -6 2 -23 -6
-36 -18 -13 -12 -30 -23 -37 -24 -7 -1 -23 -14 -36 -28 -13 -14 -29 -26 -35
-26 -7 0 -14 -11 -18 -25 -3 -14 -10 -25 -16 -25 -5 0 -6 6 -2 13 5 6 -13 -9
-38 -35 -25 -27 -50 -48 -56 -48 -6 0 -17 -9 -25 -20 -8 -11 -17 -17 -20 -13
-4 3 -7 1 -7 -6 0 -7 -5 -9 -11 -6 -6 4 -9 0 -7 -11 2 -11 -2 -18 -8 -17 -6 1
-17 -9 -24 -22 -7 -13 -23 -26 -37 -30 -13 -3 -28 -16 -33 -29 -5 -14 -18 -27
-30 -31 -11 -3 -18 -10 -15 -15 3 -5 -1 -10 -7 -13 -8 -3 1 -11 18 -18 17 -8
29 -19 27 -25 -2 -6 7 -16 19 -23 13 -7 39 -32 58 -55 27 -33 40 -41 60 -38
18 3 21 1 11 -6 -19 -14 -13 -22 49 -76 30 -26 91 -82 135 -123 44 -42 107
-101 140 -132 34 -31 93 -86 133 -123 40 -37 72 -70 72 -75 0 -10 145 -153
154 -153 8 0 56 -47 56 -54 0 -12 35 -46 47 -46 7 0 13 -4 13 -10 0 -21 238
-240 261 -240 7 0 9 -3 5 -7 -6 -7 82 -103 95 -103 4 0 27 -20 52 -45 26 -25
48 -45 50 -45 2 0 39 -33 82 -72 43 -40 82 -72 86 -70 5 1 9 -3 9 -9 0 -16 53
-69 68 -69 7 0 11 -4 8 -8 -3 -5 5 -17 17 -27 12 -10 36 -30 53 -44 17 -14 50
-42 74 -61 24 -19 55 -48 69 -63 13 -15 31 -25 38 -22 8 2 11 1 8 -4 -3 -5 -1
-12 5 -16 6 -4 8 -10 6 -14 -3 -4 6 -14 19 -21 14 -7 25 -18 25 -24 0 -6 5 -4
10 4 8 12 10 11 10 -7 0 -13 5 -23 11 -23 5 0 7 6 3 13 -5 8 -2 8 9 -2 9 -7
17 -21 17 -31 0 -17 25 -35 43 -32 4 1 7 -3 7 -9 0 -5 13 -24 29 -41 l30 -32
20 25 c11 13 20 28 21 33 0 4 12 31 26 60 24 48 58 141 83 231 35 124 38 419
7 585 -37 197 -72 334 -106 415 -5 11 -21 54 -35 95 -14 41 -30 79 -34 85 -4
5 -13 29 -19 51 -7 23 -19 47 -27 54 -8 7 -15 18 -15 24 0 11 -110 237 -120
246 -3 3 -27 43 -54 90 -26 47 -52 92 -57 100 -5 8 -21 37 -37 64 -26 46 -87
135 -114 166 -7 8 -13 17 -13 20 -2 22 -112 170 -127 170 -5 0 -7 4 -4 9 6 8
-21 46 -65 95 -43 46 -59 66 -59 72 0 7 -26 37 -75 87 -16 17 -29 33 -28 34 4
4 -33 48 -74 91 -18 19 -33 39 -33 46 0 7 -13 22 -29 34 -16 12 -38 35 -47 52
-18 30 -77 66 -93 56 -5 -3 -11 0 -14 8 -6 15 9 16 31 2 11 -7 11 -4 0 13 -7
12 -16 21 -21 21 -14 0 -64 45 -86 78 -8 11 -17 20 -20 19 -14 -3 -51 29 -51
45 0 10 -4 18 -9 18 -14 0 -101 92 -95 101 2 4 -6 13 -18 20 -13 7 -27 18 -31
25 -4 8 -15 14 -22 14 -14 0 -19 12 -16 33 0 4 -7 7 -17 7 -11 0 -27 9 -37 20
-12 13 -14 20 -5 20 7 0 2 9 -11 20 -13 10 -20 19 -15 20 5 0 17 -7 27 -16 16
-15 20 -15 41 1 20 15 20 16 3 11 -11 -3 -27 -1 -35 4 -12 8 -11 10 7 10 21 0
26 25 7 38 -5 4 -10 22 -12 40 -2 30 0 32 17 22 11 -5 23 -15 26 -20z m741
-232 c3 -5 4 -12 1 -14 -7 -7 -47 15 -47 25 0 11 38 2 46 -11z m-676 -28 c0
-5 -7 -10 -16 -10 -8 0 -12 5 -9 10 3 6 10 10 16 10 5 0 9 -4 9 -10z m40 -55
c0 -8 -2 -15 -4 -15 -2 0 -6 7 -10 15 -3 8 -1 15 4 15 6 0 10 -7 10 -15z
m-1470 -215 c0 -5 -4 -10 -10 -10 -5 0 -10 5 -10 10 0 6 5 10 10 10 6 0 10 -4
10 -10z m2886 -302 c5 -8 2 -9 -9 -5 -10 4 -17 1 -17 -5 0 -6 -3 -9 -6 -5 -7
7 4 27 16 27 5 0 12 -5 16 -12z m-2126 -823 c10 -12 10 -15 -4 -15 -9 0 -16 7
-16 15 0 8 2 15 4 15 2 0 9 -7 16 -15z m-440 -553 c0 -5 -7 -9 -15 -9 -8 0
-12 4 -9 9 3 4 9 8 15 8 5 0 9 -4 9 -8z m-30 -32 c0 -5 -5 -10 -11 -10 -5 0
-7 5 -4 10 3 6 8 10 11 10 2 0 4 -4 4 -10z m150 -90 c0 -5 -7 -7 -15 -4 -8 4
-15 8 -15 10 0 2 7 4 15 4 8 0 15 -4 15 -10z m1440 -380 c0 -5 -2 -10 -4 -10
-3 0 -8 5 -11 10 -3 6 -1 10 4 10 6 0 11 -4 11 -10z m-885 -380 c-3 -5 -11
-10 -16 -10 -6 0 -7 5 -4 10 3 6 11 10 16 10 6 0 7 -4 4 -10z m292 -156 c-3
-3 -12 -4 -19 -1 -8 3 -5 6 6 6 11 1 17 -2 13 -5z m2413 -744 c0 -5 -5 -10
-11 -10 -5 0 -7 5 -4 10 3 6 8 10 11 10 2 0 4 -4 4 -10z m-3315 -630 c3 -5 1
-10 -4 -10 -6 0 -11 5 -11 10 0 6 2 10 4 10 3 0 8 -4 11 -10z m3625 -379 c0
-3 -4 -12 -9 -19 -6 -10 -10 -7 -13 11 -4 18 -1 24 9 20 7 -3 13 -8 13 -12z
m-2785 -1 c3 -5 2 -10 -4 -10 -5 0 -13 5 -16 10 -3 6 -2 10 4 10 5 0 13 -4 16
-10z m594 -94 c-13 -14 -26 -23 -28 -20 -6 6 30 44 42 44 5 0 -1 -11 -14 -24z
m2248 -18 c-3 -8 -6 -5 -6 6 -1 11 2 17 5 13 3 -3 4 -12 1 -19z m-1027 -128
c0 -5 -7 -10 -16 -10 -8 0 -12 5 -9 10 3 6 10 10 16 10 5 0 9 -4 9 -10z m930
6 c0 -3 -4 -8 -10 -11 -5 -3 -10 -1 -10 4 0 6 5 11 10 11 6 0 10 -2 10 -4z
m-765 -86 c3 -5 1 -10 -4 -10 -6 0 -11 5 -11 10 0 6 2 10 4 10 3 0 8 -4 11
-10z m-97 -83 c2 -10 -3 -17 -12 -17 -9 0 -16 2 -16 4 0 2 -3 12 -6 21 -5 13
-2 16 12 13 10 -2 20 -11 22 -21z m-4068 -388 c0 -11 -4 -17 -10 -14 -5 3 -10
13 -10 21 0 8 5 14 10 14 6 0 10 -9 10 -21z"/>
<path d="M6025 8951 c-2 -5 4 -11 15 -14 11 -3 20 -2 20 3 0 12 -28 21 -35 11z"/>
<path d="M4940 4596 c0 -2 8 -10 18 -17 15 -13 16 -12 3 4 -13 16 -21 21 -21
13z"/>
<path d="M5080 4501 c0 -5 5 -13 10 -16 6 -3 10 -2 10 4 0 5 -4 13 -10 16 -5
3 -10 2 -10 -4z"/>
</g>
</svg>
